<?xml version="1.0" encoding="UTF-8"?>
<svg xmlns="http://www.w3.org/2000/svg" xmlns:xlink="http://www.w3.org/1999/xlink" width="504" height="360" viewBox="0 0 504 360">
<defs>
<g>
<g id="glyph-0-0">
<path d="M 0.28125 0 L 0.28125 -6.3125 L 5.296875 -6.3125 L 5.296875 0 Z M 4.5 -0.796875 L 4.5 -5.515625 L 1.078125 -5.515625 L 1.078125 -0.796875 Z M 4.5 -0.796875 "/>
</g>
<g id="glyph-0-1">
<path d="M 2.375 -6.15625 C 3.175781 -6.15625 3.753906 -5.828125 4.109375 -5.171875 C 4.378906 -4.660156 4.515625 -3.960938 4.515625 -3.078125 C 4.515625 -2.242188 4.390625 -1.554688 4.140625 -1.015625 C 3.785156 -0.222656 3.195312 0.171875 2.375 0.171875 C 1.632812 0.171875 1.082031 -0.148438 0.71875 -0.796875 C 0.425781 -1.328125 0.28125 -2.046875 0.28125 -2.953125 C 0.28125 -3.648438 0.367188 -4.25 0.546875 -4.75 C 0.878906 -5.6875 1.488281 -6.15625 2.375 -6.15625 Z M 2.375 -0.53125 C 2.769531 -0.53125 3.085938 -0.707031 3.328125 -1.0625 C 3.566406 -1.425781 3.6875 -2.085938 3.6875 -3.046875 C 3.6875 -3.753906 3.597656 -4.332031 3.421875 -4.78125 C 3.253906 -5.226562 2.921875 -5.453125 2.421875 -5.453125 C 1.972656 -5.453125 1.640625 -5.238281 1.421875 -4.8125 C 1.210938 -4.382812 1.109375 -3.753906 1.109375 -2.921875 C 1.109375 -2.296875 1.175781 -1.789062 1.3125 -1.40625 C 1.519531 -0.820312 1.875 -0.53125 2.375 -0.53125 Z M 2.375 -0.53125 "/>
</g>
<g id="glyph-0-2">
<path d="M 0.28125 0 C 0.300781 -0.53125 0.40625 -0.988281 0.59375 -1.375 C 0.789062 -1.769531 1.164062 -2.128906 1.71875 -2.453125 L 2.546875 -2.921875 C 2.910156 -3.140625 3.164062 -3.328125 3.3125 -3.484375 C 3.550781 -3.710938 3.671875 -3.984375 3.671875 -4.296875 C 3.671875 -4.648438 3.5625 -4.929688 3.34375 -5.140625 C 3.132812 -5.359375 2.847656 -5.46875 2.484375 -5.46875 C 1.960938 -5.46875 1.597656 -5.265625 1.390625 -4.859375 C 1.285156 -4.648438 1.226562 -4.351562 1.21875 -3.96875 L 0.421875 -3.96875 C 0.429688 -4.5 0.53125 -4.9375 0.71875 -5.28125 C 1.050781 -5.875 1.644531 -6.171875 2.5 -6.171875 C 3.195312 -6.171875 3.707031 -5.976562 4.03125 -5.59375 C 4.363281 -5.21875 4.53125 -4.796875 4.53125 -4.328125 C 4.53125 -3.835938 4.351562 -3.414062 4 -3.0625 C 3.800781 -2.863281 3.441406 -2.617188 2.921875 -2.328125 L 2.34375 -2 C 2.0625 -1.84375 1.835938 -1.695312 1.671875 -1.5625 C 1.390625 -1.3125 1.210938 -1.035156 1.140625 -0.734375 L 4.5 -0.734375 L 4.5 0 Z M 0.28125 0 "/>
</g>
<g id="glyph-0-3">
<path d="M 2.90625 -2.171875 L 2.90625 -4.96875 L 0.9375 -2.171875 Z M 2.921875 0 L 2.921875 -1.5 L 0.21875 -1.5 L 0.21875 -2.265625 L 3.046875 -6.171875 L 3.6875 -6.171875 L 3.6875 -2.171875 L 4.59375 -2.171875 L 4.59375 -1.5 L 3.6875 -1.5 L 3.6875 0 Z M 2.921875 0 "/>
</g>
<g id="glyph-0-4">
<path d="M 2.578125 -6.171875 C 3.265625 -6.171875 3.742188 -5.992188 4.015625 -5.640625 C 4.285156 -5.285156 4.421875 -4.921875 4.421875 -4.546875 L 3.65625 -4.546875 C 3.601562 -4.785156 3.53125 -4.972656 3.4375 -5.109375 C 3.25 -5.367188 2.960938 -5.5 2.578125 -5.5 C 2.148438 -5.5 1.804688 -5.296875 1.546875 -4.890625 C 1.296875 -4.492188 1.15625 -3.925781 1.125 -3.1875 C 1.300781 -3.445312 1.523438 -3.640625 1.796875 -3.765625 C 2.046875 -3.878906 2.320312 -3.9375 2.625 -3.9375 C 3.132812 -3.9375 3.582031 -3.769531 3.96875 -3.4375 C 4.351562 -3.113281 4.546875 -2.625 4.546875 -1.96875 C 4.546875 -1.414062 4.363281 -0.921875 4 -0.484375 C 3.632812 -0.0546875 3.117188 0.15625 2.453125 0.15625 C 1.867188 0.15625 1.367188 -0.0625 0.953125 -0.5 C 0.535156 -0.9375 0.328125 -1.671875 0.328125 -2.703125 C 0.328125 -3.460938 0.421875 -4.109375 0.609375 -4.640625 C 0.960938 -5.660156 1.617188 -6.171875 2.578125 -6.171875 Z M 2.515625 -0.53125 C 2.921875 -0.53125 3.222656 -0.664062 3.421875 -0.9375 C 3.628906 -1.207031 3.734375 -1.53125 3.734375 -1.90625 C 3.734375 -2.21875 3.640625 -2.515625 3.453125 -2.796875 C 3.273438 -3.085938 2.953125 -3.234375 2.484375 -3.234375 C 2.148438 -3.234375 1.859375 -3.125 1.609375 -2.90625 C 1.359375 -2.6875 1.234375 -2.351562 1.234375 -1.90625 C 1.234375 -1.519531 1.34375 -1.191406 1.5625 -0.921875 C 1.789062 -0.660156 2.109375 -0.53125 2.515625 -0.53125 Z M 2.515625 -0.53125 "/>
</g>
<g id="glyph-0-5">
<path d="M 1.09375 -1.5625 C 1.132812 -1.125 1.335938 -0.820312 1.703125 -0.65625 C 1.878906 -0.570312 2.09375 -0.53125 2.34375 -0.53125 C 2.800781 -0.53125 3.140625 -0.675781 3.359375 -0.96875 C 3.578125 -1.257812 3.6875 -1.582031 3.6875 -1.9375 C 3.6875 -2.363281 3.554688 -2.691406 3.296875 -2.921875 C 3.035156 -3.160156 2.71875 -3.28125 2.34375 -3.28125 C 2.082031 -3.28125 1.851562 -3.226562 1.65625 -3.125 C 1.46875 -3.019531 1.304688 -2.878906 1.171875 -2.703125 L 0.5 -2.734375 L 0.96875 -6.046875 L 4.171875 -6.046875 L 4.171875 -5.296875 L 1.5625 -5.296875 L 1.296875 -3.59375 C 1.429688 -3.695312 1.566406 -3.773438 1.703125 -3.828125 C 1.929688 -3.929688 2.195312 -3.984375 2.5 -3.984375 C 3.0625 -3.984375 3.535156 -3.800781 3.921875 -3.4375 C 4.316406 -3.070312 4.515625 -2.609375 4.515625 -2.046875 C 4.515625 -1.460938 4.332031 -0.945312 3.96875 -0.5 C 3.613281 -0.0625 3.046875 0.15625 2.265625 0.15625 C 1.753906 0.15625 1.304688 0.015625 0.921875 -0.265625 C 0.546875 -0.546875 0.332031 -0.976562 0.28125 -1.5625 Z M 1.09375 -1.5625 "/>
</g>
<g id="glyph-0-6">
<path d="M 0.734375 0.890625 C 0.929688 0.859375 1.066406 0.722656 1.140625 0.484375 C 1.191406 0.347656 1.21875 0.222656 1.21875 0.109375 C 1.21875 0.0859375 1.210938 0.0664062 1.203125 0.046875 C 1.203125 0.0351562 1.203125 0.0195312 1.203125 0 L 0.734375 0 L 0.734375 -0.9375 L 1.65625 -0.9375 L 1.65625 -0.0625 C 1.65625 0.269531 1.582031 0.566406 1.4375 0.828125 C 1.300781 1.085938 1.066406 1.25 0.734375 1.3125 Z M 0.734375 0.890625 "/>
</g>
<g id="glyph-0-7">
<path d="M 0.84375 -4.359375 L 0.84375 -4.953125 C 1.394531 -5.003906 1.78125 -5.09375 2 -5.21875 C 2.226562 -5.34375 2.394531 -5.644531 2.5 -6.125 L 3.109375 -6.125 L 3.109375 0 L 2.296875 0 L 2.296875 -4.359375 Z M 0.84375 -4.359375 "/>
</g>
<g id="glyph-1-0">
<path d="M 0.359375 0 L 0.359375 -7.890625 L 6.625 -7.890625 L 6.625 0 Z M 5.625 -0.984375 L 5.625 -6.90625 L 1.34375 -6.90625 L 1.34375 -0.984375 Z M 5.625 -0.984375 "/>
</g>
<g id="glyph-1-1">
<path d="M 3.875 -0.90625 C 4.226562 -0.90625 4.523438 -0.945312 4.765625 -1.03125 C 5.171875 -1.164062 5.507812 -1.429688 5.78125 -1.828125 C 5.988281 -2.148438 6.140625 -2.5625 6.234375 -3.0625 C 6.285156 -3.351562 6.3125 -3.628906 6.3125 -3.890625 C 6.3125 -4.859375 6.117188 -5.613281 5.734375 -6.15625 C 5.347656 -6.695312 4.722656 -6.96875 3.859375 -6.96875 L 1.953125 -6.96875 L 1.953125 -0.90625 Z M 0.890625 -7.890625 L 4.078125 -7.890625 C 5.160156 -7.890625 6.003906 -7.503906 6.609375 -6.734375 C 7.140625 -6.035156 7.40625 -5.144531 7.40625 -4.0625 C 7.40625 -3.226562 7.25 -2.472656 6.9375 -1.796875 C 6.382812 -0.597656 5.429688 0 4.078125 0 L 0.890625 0 Z M 0.890625 -7.890625 "/>
</g>
<g id="glyph-1-2">
<path d="M 2.984375 -0.625 C 3.628906 -0.625 4.070312 -0.863281 4.3125 -1.34375 C 4.550781 -1.832031 4.671875 -2.375 4.671875 -2.96875 C 4.671875 -3.507812 4.582031 -3.945312 4.40625 -4.28125 C 4.132812 -4.8125 3.664062 -5.078125 3 -5.078125 C 2.40625 -5.078125 1.972656 -4.847656 1.703125 -4.390625 C 1.441406 -3.941406 1.3125 -3.398438 1.3125 -2.765625 C 1.3125 -2.148438 1.441406 -1.640625 1.703125 -1.234375 C 1.972656 -0.828125 2.398438 -0.625 2.984375 -0.625 Z M 3.03125 -5.921875 C 3.769531 -5.921875 4.394531 -5.671875 4.90625 -5.171875 C 5.414062 -4.679688 5.671875 -3.957031 5.671875 -3 C 5.671875 -2.070312 5.445312 -1.304688 5 -0.703125 C 4.550781 -0.0976562 3.851562 0.203125 2.90625 0.203125 C 2.113281 0.203125 1.484375 -0.0625 1.015625 -0.59375 C 0.546875 -1.125 0.3125 -1.84375 0.3125 -2.75 C 0.3125 -3.71875 0.554688 -4.488281 1.046875 -5.0625 C 1.535156 -5.632812 2.195312 -5.921875 3.03125 -5.921875 Z M 3 -5.890625 Z M 3 -5.890625 "/>
</g>
<g id="glyph-1-3">
<path d="M 2.734375 -5.859375 C 3.191406 -5.859375 3.585938 -5.742188 3.921875 -5.515625 C 4.097656 -5.390625 4.285156 -5.207031 4.484375 -4.96875 L 4.484375 -5.703125 L 5.375 -5.703125 L 5.375 -0.46875 C 5.375 0.257812 5.265625 0.835938 5.046875 1.265625 C 4.648438 2.046875 3.894531 2.4375 2.78125 2.4375 C 2.15625 2.4375 1.628906 2.296875 1.203125 2.015625 C 0.785156 1.734375 0.550781 1.300781 0.5 0.71875 L 1.484375 0.71875 C 1.535156 0.96875 1.628906 1.164062 1.765625 1.3125 C 1.984375 1.53125 2.328125 1.640625 2.796875 1.640625 C 3.535156 1.640625 4.019531 1.375 4.25 0.84375 C 4.382812 0.539062 4.445312 -0.00390625 4.4375 -0.796875 C 4.25 -0.503906 4.015625 -0.285156 3.734375 -0.140625 C 3.460938 -0.00390625 3.109375 0.0625 2.671875 0.0625 C 2.046875 0.0625 1.5 -0.15625 1.03125 -0.59375 C 0.5625 -1.03125 0.328125 -1.757812 0.328125 -2.78125 C 0.328125 -3.75 0.5625 -4.503906 1.03125 -5.046875 C 1.5 -5.585938 2.066406 -5.859375 2.734375 -5.859375 Z M 4.484375 -2.90625 C 4.484375 -3.613281 4.332031 -4.140625 4.03125 -4.484375 C 3.738281 -4.828125 3.367188 -5 2.921875 -5 C 2.234375 -5 1.765625 -4.679688 1.515625 -4.046875 C 1.390625 -3.703125 1.328125 -3.253906 1.328125 -2.703125 C 1.328125 -2.054688 1.457031 -1.5625 1.71875 -1.21875 C 1.976562 -0.882812 2.332031 -0.71875 2.78125 -0.71875 C 3.46875 -0.71875 3.957031 -1.03125 4.25 -1.65625 C 4.40625 -2.007812 4.484375 -2.425781 4.484375 -2.90625 Z M 2.859375 -5.890625 Z M 2.859375 -5.890625 "/>
</g>
<g id="glyph-1-4">
</g>
<g id="glyph-1-5">
<path d="M 0.84375 -7.890625 L 1.90625 -7.890625 L 1.90625 -0.9375 L 5.90625 -0.9375 L 5.90625 0 L 0.84375 0 Z M 0.84375 -7.890625 "/>
</g>
<g id="glyph-1-6">
<path d="M 0.703125 -5.71875 L 1.6875 -5.71875 L 1.6875 0 L 0.703125 0 Z M 0.703125 -7.890625 L 1.6875 -7.890625 L 1.6875 -6.796875 L 0.703125 -6.796875 Z M 0.703125 -7.890625 "/>
</g>
<g id="glyph-1-7">
<path d="M 2.921875 -5.921875 C 3.578125 -5.921875 4.109375 -5.757812 4.515625 -5.4375 C 4.921875 -5.125 5.164062 -4.582031 5.25 -3.8125 L 4.296875 -3.8125 C 4.242188 -4.164062 4.113281 -4.457031 3.90625 -4.6875 C 3.707031 -4.925781 3.378906 -5.046875 2.921875 -5.046875 C 2.304688 -5.046875 1.867188 -4.75 1.609375 -4.15625 C 1.429688 -3.757812 1.34375 -3.273438 1.34375 -2.703125 C 1.34375 -2.128906 1.460938 -1.644531 1.703125 -1.25 C 1.953125 -0.851562 2.335938 -0.65625 2.859375 -0.65625 C 3.265625 -0.65625 3.582031 -0.773438 3.8125 -1.015625 C 4.050781 -1.265625 4.210938 -1.601562 4.296875 -2.03125 L 5.25 -2.03125 C 5.132812 -1.269531 4.863281 -0.710938 4.4375 -0.359375 C 4.007812 -0.00390625 3.457031 0.171875 2.78125 0.171875 C 2.03125 0.171875 1.429688 -0.101562 0.984375 -0.65625 C 0.535156 -1.207031 0.3125 -1.894531 0.3125 -2.71875 C 0.3125 -3.726562 0.554688 -4.515625 1.046875 -5.078125 C 1.535156 -5.640625 2.160156 -5.921875 2.921875 -5.921875 Z M 2.78125 -5.890625 Z M 2.78125 -5.890625 "/>
</g>
<g id="glyph-1-8">
<path d="M 3.109375 -5.875 C 3.515625 -5.875 3.90625 -5.78125 4.28125 -5.59375 C 4.664062 -5.40625 4.960938 -5.15625 5.171875 -4.84375 C 5.359375 -4.5625 5.484375 -4.222656 5.546875 -3.828125 C 5.609375 -3.566406 5.640625 -3.144531 5.640625 -2.5625 L 1.421875 -2.5625 C 1.441406 -1.976562 1.578125 -1.507812 1.828125 -1.15625 C 2.085938 -0.8125 2.488281 -0.640625 3.03125 -0.640625 C 3.539062 -0.640625 3.945312 -0.804688 4.25 -1.140625 C 4.414062 -1.328125 4.535156 -1.550781 4.609375 -1.8125 L 5.5625 -1.8125 C 5.53125 -1.59375 5.441406 -1.351562 5.296875 -1.09375 C 5.160156 -0.832031 5.003906 -0.625 4.828125 -0.46875 C 4.535156 -0.175781 4.175781 0.0195312 3.75 0.125 C 3.507812 0.175781 3.242188 0.203125 2.953125 0.203125 C 2.234375 0.203125 1.625 -0.0546875 1.125 -0.578125 C 0.632812 -1.097656 0.390625 -1.828125 0.390625 -2.765625 C 0.390625 -3.691406 0.640625 -4.441406 1.140625 -5.015625 C 1.640625 -5.585938 2.296875 -5.875 3.109375 -5.875 Z M 4.640625 -3.328125 C 4.609375 -3.753906 4.519531 -4.09375 4.375 -4.34375 C 4.101562 -4.800781 3.660156 -5.03125 3.046875 -5.03125 C 2.597656 -5.03125 2.222656 -4.867188 1.921875 -4.546875 C 1.628906 -4.234375 1.472656 -3.828125 1.453125 -3.328125 Z M 3.015625 -5.890625 Z M 3.015625 -5.890625 "/>
</g>
<g id="glyph-1-9">
<path d="M 0.703125 -5.75 L 1.625 -5.75 L 1.625 -4.9375 C 1.894531 -5.269531 2.179688 -5.507812 2.484375 -5.65625 C 2.796875 -5.800781 3.132812 -5.875 3.5 -5.875 C 4.320312 -5.875 4.875 -5.59375 5.15625 -5.03125 C 5.3125 -4.71875 5.390625 -4.269531 5.390625 -3.6875 L 5.390625 0 L 4.421875 0 L 4.421875 -3.625 C 4.421875 -3.976562 4.367188 -4.257812 4.265625 -4.46875 C 4.085938 -4.832031 3.773438 -5.015625 3.328125 -5.015625 C 3.097656 -5.015625 2.910156 -4.988281 2.765625 -4.9375 C 2.492188 -4.863281 2.257812 -4.707031 2.0625 -4.46875 C 1.90625 -4.28125 1.800781 -4.082031 1.75 -3.875 C 1.695312 -3.675781 1.671875 -3.390625 1.671875 -3.015625 L 1.671875 0 L 0.703125 0 Z M 2.984375 -5.890625 Z M 2.984375 -5.890625 "/>
</g>
<g id="glyph-1-10">
<path d="M 1.28125 -1.8125 C 1.3125 -1.488281 1.394531 -1.238281 1.53125 -1.0625 C 1.769531 -0.75 2.191406 -0.59375 2.796875 -0.59375 C 3.148438 -0.59375 3.460938 -0.671875 3.734375 -0.828125 C 4.003906 -0.984375 4.140625 -1.222656 4.140625 -1.546875 C 4.140625 -1.796875 4.03125 -1.984375 3.8125 -2.109375 C 3.675781 -2.191406 3.398438 -2.285156 2.984375 -2.390625 L 2.21875 -2.578125 C 1.726562 -2.703125 1.367188 -2.835938 1.140625 -2.984375 C 0.722656 -3.253906 0.515625 -3.617188 0.515625 -4.078125 C 0.515625 -4.617188 0.707031 -5.054688 1.09375 -5.390625 C 1.488281 -5.734375 2.019531 -5.90625 2.6875 -5.90625 C 3.550781 -5.90625 4.175781 -5.648438 4.5625 -5.140625 C 4.800781 -4.816406 4.914062 -4.46875 4.90625 -4.09375 L 4 -4.09375 C 3.976562 -4.3125 3.898438 -4.507812 3.765625 -4.6875 C 3.546875 -4.945312 3.160156 -5.078125 2.609375 -5.078125 C 2.242188 -5.078125 1.96875 -5.003906 1.78125 -4.859375 C 1.59375 -4.722656 1.5 -4.539062 1.5 -4.3125 C 1.5 -4.0625 1.625 -3.863281 1.875 -3.71875 C 2.007812 -3.625 2.21875 -3.539062 2.5 -3.46875 L 3.140625 -3.3125 C 3.835938 -3.144531 4.300781 -2.984375 4.53125 -2.828125 C 4.914062 -2.578125 5.109375 -2.191406 5.109375 -1.671875 C 5.109375 -1.148438 4.910156 -0.703125 4.515625 -0.328125 C 4.128906 0.0351562 3.539062 0.21875 2.75 0.21875 C 1.894531 0.21875 1.285156 0.0234375 0.921875 -0.359375 C 0.566406 -0.753906 0.378906 -1.238281 0.359375 -1.8125 Z M 2.71875 -5.890625 Z M 2.71875 -5.890625 "/>
</g>
<g id="glyph-2-0">
<path d="M 0 -0.359375 L -7.890625 -0.359375 L -7.890625 -6.625 L 0 -6.625 Z M -0.984375 -5.625 L -6.90625 -5.625 L -6.90625 -1.34375 L -0.984375 -1.34375 Z M -0.984375 -5.625 "/>
</g>
<g id="glyph-2-1">
<path d="M 0 -0.34375 C -0.664062 -0.375 -1.242188 -0.507812 -1.734375 -0.75 C -2.222656 -0.988281 -2.664062 -1.457031 -3.0625 -2.15625 L -3.65625 -3.1875 C -3.925781 -3.644531 -4.15625 -3.96875 -4.34375 -4.15625 C -4.644531 -4.445312 -4.988281 -4.59375 -5.375 -4.59375 C -5.820312 -4.59375 -6.175781 -4.457031 -6.4375 -4.1875 C -6.695312 -3.914062 -6.828125 -3.554688 -6.828125 -3.109375 C -6.828125 -2.453125 -6.578125 -1.992188 -6.078125 -1.734375 C -5.804688 -1.597656 -5.4375 -1.523438 -4.96875 -1.515625 L -4.96875 -0.53125 C -5.632812 -0.539062 -6.175781 -0.664062 -6.59375 -0.90625 C -7.34375 -1.320312 -7.71875 -2.0625 -7.71875 -3.125 C -7.71875 -4 -7.476562 -4.640625 -7 -5.046875 C -6.53125 -5.453125 -6.003906 -5.65625 -5.421875 -5.65625 C -4.796875 -5.65625 -4.265625 -5.441406 -3.828125 -5.015625 C -3.578125 -4.765625 -3.269531 -4.3125 -2.90625 -3.65625 L -2.5 -2.921875 C -2.3125 -2.578125 -2.128906 -2.300781 -1.953125 -2.09375 C -1.640625 -1.738281 -1.289062 -1.515625 -0.90625 -1.421875 L -0.90625 -5.625 L 0 -5.625 Z M 0 -0.34375 "/>
</g>
<g id="glyph-2-2">
<path d="M -7.6875 -2.96875 C -7.6875 -3.96875 -7.28125 -4.691406 -6.46875 -5.140625 C -5.832031 -5.484375 -4.960938 -5.65625 -3.859375 -5.65625 C -2.804688 -5.65625 -1.941406 -5.5 -1.265625 -5.1875 C -0.285156 -4.726562 0.203125 -3.988281 0.203125 -2.96875 C 0.203125 -2.039062 -0.195312 -1.351562 -1 -0.90625 C -1.664062 -0.53125 -2.5625 -0.34375 -3.6875 -0.34375 C -4.5625 -0.34375 -5.3125 -0.457031 -5.9375 -0.6875 C -7.101562 -1.101562 -7.6875 -1.863281 -7.6875 -2.96875 Z M -0.671875 -2.96875 C -0.671875 -3.46875 -0.890625 -3.863281 -1.328125 -4.15625 C -1.773438 -4.457031 -2.601562 -4.609375 -3.8125 -4.609375 C -4.6875 -4.609375 -5.40625 -4.5 -5.96875 -4.28125 C -6.539062 -4.070312 -6.828125 -3.65625 -6.828125 -3.03125 C -6.828125 -2.46875 -6.554688 -2.050781 -6.015625 -1.78125 C -5.484375 -1.519531 -4.695312 -1.390625 -3.65625 -1.390625 C -2.863281 -1.390625 -2.234375 -1.472656 -1.765625 -1.640625 C -1.035156 -1.898438 -0.671875 -2.34375 -0.671875 -2.96875 Z M -0.671875 -2.96875 "/>
</g>
<g id="glyph-2-3">
<path d="M -7.71875 -3.21875 C -7.71875 -4.070312 -7.492188 -4.664062 -7.046875 -5 C -6.609375 -5.34375 -6.148438 -5.515625 -5.671875 -5.515625 L -5.671875 -4.5625 C -5.984375 -4.507812 -6.222656 -4.421875 -6.390625 -4.296875 C -6.710938 -4.054688 -6.875 -3.703125 -6.875 -3.234375 C -6.875 -2.691406 -6.625 -2.257812 -6.125 -1.9375 C -5.625 -1.625 -4.910156 -1.445312 -3.984375 -1.40625 C -4.304688 -1.632812 -4.546875 -1.914062 -4.703125 -2.25 C -4.847656 -2.5625 -4.921875 -2.90625 -4.921875 -3.28125 C -4.921875 -3.925781 -4.710938 -4.488281 -4.296875 -4.96875 C -3.890625 -5.445312 -3.28125 -5.6875 -2.46875 -5.6875 C -1.769531 -5.6875 -1.148438 -5.457031 -0.609375 -5 C -0.0664062 -4.550781 0.203125 -3.90625 0.203125 -3.0625 C 0.203125 -2.34375 -0.0664062 -1.71875 -0.609375 -1.1875 C -1.160156 -0.664062 -2.082031 -0.40625 -3.375 -0.40625 C -4.332031 -0.40625 -5.144531 -0.523438 -5.8125 -0.765625 C -7.082031 -1.210938 -7.71875 -2.03125 -7.71875 -3.21875 Z M -0.65625 -3.140625 C -0.65625 -3.648438 -0.828125 -4.03125 -1.171875 -4.28125 C -1.515625 -4.539062 -1.921875 -4.671875 -2.390625 -4.671875 C -2.773438 -4.671875 -3.144531 -4.554688 -3.5 -4.328125 C -3.863281 -4.097656 -4.046875 -3.6875 -4.046875 -3.09375 C -4.046875 -2.675781 -3.90625 -2.3125 -3.625 -2 C -3.351562 -1.6875 -2.941406 -1.53125 -2.390625 -1.53125 C -1.898438 -1.53125 -1.488281 -1.671875 -1.15625 -1.953125 C -0.820312 -2.242188 -0.65625 -2.640625 -0.65625 -3.140625 Z M -0.65625 -3.140625 "/>
</g>
<g id="glyph-2-4">
</g>
<g id="glyph-2-5">
<path d="M -7.890625 -0.21875 L -7.890625 -1.46875 L -4.09375 -3.734375 L -7.890625 -6 L -7.890625 -7.25 L -3.1875 -4.28125 L 0 -4.28125 L 0 -3.203125 L -3.1875 -3.203125 Z M -7.890625 -3.75 Z M -7.890625 -3.75 "/>
</g>
<g id="glyph-2-6">
<path d="M -7.890625 -6.578125 L -6.953125 -6.578125 L -6.953125 -3.921875 L 0 -3.921875 L 0 -2.84375 L -6.953125 -2.84375 L -6.953125 -0.171875 L -7.890625 -0.171875 Z M -7.890625 -6.578125 "/>
</g>
<g id="glyph-2-7">
<path d="M -0.90625 -3.875 C -0.90625 -4.226562 -0.945312 -4.523438 -1.03125 -4.765625 C -1.164062 -5.171875 -1.429688 -5.507812 -1.828125 -5.78125 C -2.148438 -5.988281 -2.5625 -6.140625 -3.0625 -6.234375 C -3.351562 -6.285156 -3.628906 -6.3125 -3.890625 -6.3125 C -4.859375 -6.3125 -5.613281 -6.117188 -6.15625 -5.734375 C -6.695312 -5.347656 -6.96875 -4.722656 -6.96875 -3.859375 L -6.96875 -1.953125 L -0.90625 -1.953125 Z M -7.890625 -0.890625 L -7.890625 -4.078125 C -7.890625 -5.160156 -7.503906 -6.003906 -6.734375 -6.609375 C -6.035156 -7.140625 -5.144531 -7.40625 -4.0625 -7.40625 C -3.226562 -7.40625 -2.472656 -7.25 -1.796875 -6.9375 C -0.597656 -6.382812 0 -5.429688 0 -4.078125 L 0 -0.890625 Z M -7.890625 -0.890625 "/>
</g>
<g id="glyph-2-8">
<path d="M -0.625 -2.984375 C -0.625 -3.628906 -0.863281 -4.070312 -1.34375 -4.3125 C -1.832031 -4.550781 -2.375 -4.671875 -2.96875 -4.671875 C -3.507812 -4.671875 -3.945312 -4.582031 -4.28125 -4.40625 C -4.8125 -4.132812 -5.078125 -3.664062 -5.078125 -3 C -5.078125 -2.40625 -4.847656 -1.972656 -4.390625 -1.703125 C -3.941406 -1.441406 -3.398438 -1.3125 -2.765625 -1.3125 C -2.148438 -1.3125 -1.640625 -1.441406 -1.234375 -1.703125 C -0.828125 -1.972656 -0.625 -2.398438 -0.625 -2.984375 Z M -5.921875 -3.03125 C -5.921875 -3.769531 -5.671875 -4.394531 -5.171875 -4.90625 C -4.679688 -5.414062 -3.957031 -5.671875 -3 -5.671875 C -2.070312 -5.671875 -1.304688 -5.445312 -0.703125 -5 C -0.0976562 -4.550781 0.203125 -3.851562 0.203125 -2.90625 C 0.203125 -2.113281 -0.0625 -1.484375 -0.59375 -1.015625 C -1.125 -0.546875 -1.84375 -0.3125 -2.75 -0.3125 C -3.71875 -0.3125 -4.488281 -0.554688 -5.0625 -1.046875 C -5.632812 -1.535156 -5.921875 -2.195312 -5.921875 -3.03125 Z M -5.890625 -3 Z M -5.890625 -3 "/>
</g>
<g id="glyph-2-9">
<path d="M -5.859375 -2.734375 C -5.859375 -3.191406 -5.742188 -3.585938 -5.515625 -3.921875 C -5.390625 -4.097656 -5.207031 -4.285156 -4.96875 -4.484375 L -5.703125 -4.484375 L -5.703125 -5.375 L -0.46875 -5.375 C 0.257812 -5.375 0.835938 -5.265625 1.265625 -5.046875 C 2.046875 -4.648438 2.4375 -3.894531 2.4375 -2.78125 C 2.4375 -2.15625 2.296875 -1.628906 2.015625 -1.203125 C 1.734375 -0.785156 1.300781 -0.550781 0.71875 -0.5 L 0.71875 -1.484375 C 0.96875 -1.535156 1.164062 -1.628906 1.3125 -1.765625 C 1.53125 -1.984375 1.640625 -2.328125 1.640625 -2.796875 C 1.640625 -3.535156 1.375 -4.019531 0.84375 -4.25 C 0.539062 -4.382812 -0.00390625 -4.445312 -0.796875 -4.4375 C -0.503906 -4.25 -0.285156 -4.015625 -0.140625 -3.734375 C -0.00390625 -3.460938 0.0625 -3.109375 0.0625 -2.671875 C 0.0625 -2.046875 -0.15625 -1.5 -0.59375 -1.03125 C -1.03125 -0.5625 -1.757812 -0.328125 -2.78125 -0.328125 C -3.75 -0.328125 -4.503906 -0.5625 -5.046875 -1.03125 C -5.585938 -1.5 -5.859375 -2.066406 -5.859375 -2.734375 Z M -2.90625 -4.484375 C -3.613281 -4.484375 -4.140625 -4.332031 -4.484375 -4.03125 C -4.828125 -3.738281 -5 -3.367188 -5 -2.921875 C -5 -2.234375 -4.679688 -1.765625 -4.046875 -1.515625 C -3.703125 -1.390625 -3.253906 -1.328125 -2.703125 -1.328125 C -2.054688 -1.328125 -1.5625 -1.457031 -1.21875 -1.71875 C -0.882812 -1.976562 -0.71875 -2.332031 -0.71875 -2.78125 C -0.71875 -3.46875 -1.03125 -3.957031 -1.65625 -4.25 C -2.007812 -4.40625 -2.425781 -4.484375 -2.90625 -4.484375 Z M -5.890625 -2.859375 Z M -5.890625 -2.859375 "/>
</g>
<g id="glyph-2-10">
<path d="M -7.890625 -0.9375 L -7.890625 -4.484375 C -7.890625 -5.191406 -7.691406 -5.757812 -7.296875 -6.1875 C -6.898438 -6.613281 -6.34375 -6.828125 -5.625 -6.828125 C -5.007812 -6.828125 -4.472656 -6.632812 -4.015625 -6.25 C -3.554688 -5.875 -3.328125 -5.285156 -3.328125 -4.484375 L -3.328125 -2.015625 L 0 -2.015625 L 0 -0.9375 Z M -5.625 -5.75 C -6.207031 -5.75 -6.601562 -5.535156 -6.8125 -5.109375 C -6.914062 -4.867188 -6.96875 -4.546875 -6.96875 -4.140625 L -6.96875 -2.015625 L -4.234375 -2.015625 L -4.234375 -4.140625 C -4.234375 -4.617188 -4.332031 -5.003906 -4.53125 -5.296875 C -4.738281 -5.597656 -5.101562 -5.75 -5.625 -5.75 Z M -5.625 -5.75 "/>
</g>
<g id="glyph-2-11">
<path d="M -0.65625 -3.140625 C -0.65625 -3.585938 -0.84375 -3.957031 -1.21875 -4.25 C -1.59375 -4.550781 -2.15625 -4.703125 -2.90625 -4.703125 C -3.363281 -4.703125 -3.757812 -4.640625 -4.09375 -4.515625 C -4.726562 -4.265625 -5.046875 -3.804688 -5.046875 -3.140625 C -5.046875 -2.460938 -4.710938 -2.003906 -4.046875 -1.765625 C -3.679688 -1.628906 -3.222656 -1.5625 -2.671875 -1.5625 C -2.234375 -1.5625 -1.859375 -1.628906 -1.546875 -1.765625 C -0.953125 -2.015625 -0.65625 -2.472656 -0.65625 -3.140625 Z M -5.71875 -0.640625 L -5.71875 -1.578125 L -4.96875 -1.578125 C -5.226562 -1.765625 -5.425781 -1.972656 -5.5625 -2.203125 C -5.78125 -2.535156 -5.890625 -2.921875 -5.890625 -3.359375 C -5.890625 -4.003906 -5.640625 -4.554688 -5.140625 -5.015625 C -4.640625 -5.472656 -3.925781 -5.703125 -3 -5.703125 C -1.75 -5.703125 -0.851562 -5.375 -0.3125 -4.71875 C 0.0195312 -4.300781 0.1875 -3.816406 0.1875 -3.265625 C 0.1875 -2.828125 0.09375 -2.460938 -0.09375 -2.171875 C -0.195312 -2.003906 -0.378906 -1.8125 -0.640625 -1.59375 L 2.296875 -1.59375 L 2.296875 -0.640625 Z M -5.71875 -0.640625 "/>
</g>
<g id="glyph-2-12">
<path d="M -2.546875 -1.53125 C -2.097656 -1.5625 -1.734375 -1.671875 -1.453125 -1.859375 C -0.929688 -2.210938 -0.671875 -2.835938 -0.671875 -3.734375 C -0.671875 -4.128906 -0.726562 -4.492188 -0.84375 -4.828125 C -1.0625 -5.460938 -1.457031 -5.78125 -2.03125 -5.78125 C -2.46875 -5.78125 -2.773438 -5.644531 -2.953125 -5.375 C -3.128906 -5.101562 -3.285156 -4.675781 -3.421875 -4.09375 L -3.65625 -3.03125 C -3.820312 -2.332031 -4 -1.835938 -4.1875 -1.546875 C -4.507812 -1.046875 -5 -0.796875 -5.65625 -0.796875 C -6.363281 -0.796875 -6.945312 -1.039062 -7.40625 -1.53125 C -7.863281 -2.019531 -8.09375 -2.710938 -8.09375 -3.609375 C -8.09375 -4.441406 -7.890625 -5.144531 -7.484375 -5.71875 C -7.085938 -6.300781 -6.453125 -6.59375 -5.578125 -6.59375 L -5.578125 -5.59375 C -5.992188 -5.53125 -6.316406 -5.414062 -6.546875 -5.25 C -6.960938 -4.914062 -7.171875 -4.359375 -7.171875 -3.578125 C -7.171875 -2.953125 -7.035156 -2.5 -6.765625 -2.21875 C -6.503906 -1.945312 -6.195312 -1.8125 -5.84375 -1.8125 C -5.457031 -1.8125 -5.175781 -1.972656 -5 -2.296875 C -4.882812 -2.503906 -4.738281 -2.984375 -4.5625 -3.734375 L -4.3125 -4.828125 C -4.1875 -5.367188 -4.019531 -5.78125 -3.8125 -6.0625 C -3.445312 -6.570312 -2.910156 -6.828125 -2.203125 -6.828125 C -1.328125 -6.828125 -0.703125 -6.507812 -0.328125 -5.875 C 0.046875 -5.238281 0.234375 -4.5 0.234375 -3.65625 C 0.234375 -2.675781 -0.015625 -1.90625 -0.515625 -1.34375 C -1.015625 -0.789062 -1.691406 -0.519531 -2.546875 -0.53125 Z M -8.109375 -3.703125 Z M -8.109375 -3.703125 "/>
</g>
<g id="glyph-2-13">
<path d="M -5.875 -3.109375 C -5.875 -3.515625 -5.78125 -3.90625 -5.59375 -4.28125 C -5.40625 -4.664062 -5.15625 -4.960938 -4.84375 -5.171875 C -4.5625 -5.359375 -4.222656 -5.484375 -3.828125 -5.546875 C -3.566406 -5.609375 -3.144531 -5.640625 -2.5625 -5.640625 L -2.5625 -1.421875 C -1.976562 -1.441406 -1.507812 -1.578125 -1.15625 -1.828125 C -0.8125 -2.085938 -0.640625 -2.488281 -0.640625 -3.03125 C -0.640625 -3.539062 -0.804688 -3.945312 -1.140625 -4.25 C -1.328125 -4.414062 -1.550781 -4.535156 -1.8125 -4.609375 L -1.8125 -5.5625 C -1.59375 -5.53125 -1.351562 -5.441406 -1.09375 -5.296875 C -0.832031 -5.160156 -0.625 -5.003906 -0.46875 -4.828125 C -0.175781 -4.535156 0.0195312 -4.175781 0.125 -3.75 C 0.175781 -3.507812 0.203125 -3.242188 0.203125 -2.953125 C 0.203125 -2.234375 -0.0546875 -1.625 -0.578125 -1.125 C -1.097656 -0.632812 -1.828125 -0.390625 -2.765625 -0.390625 C -3.691406 -0.390625 -4.441406 -0.640625 -5.015625 -1.140625 C -5.585938 -1.640625 -5.875 -2.296875 -5.875 -3.109375 Z M -3.328125 -4.640625 C -3.753906 -4.609375 -4.09375 -4.519531 -4.34375 -4.375 C -4.800781 -4.101562 -5.03125 -3.660156 -5.03125 -3.046875 C -5.03125 -2.597656 -4.867188 -2.222656 -4.546875 -1.921875 C -4.234375 -1.628906 -3.828125 -1.472656 -3.328125 -1.453125 Z M -5.890625 -3.015625 Z M -5.890625 -3.015625 "/>
</g>
<g id="glyph-2-14">
<path d="M -5.75 -0.734375 L -5.75 -1.65625 L -4.765625 -1.65625 C -4.953125 -1.726562 -5.179688 -1.910156 -5.453125 -2.203125 C -5.734375 -2.492188 -5.875 -2.832031 -5.875 -3.21875 C -5.875 -3.238281 -5.875 -3.269531 -5.875 -3.3125 C -5.875 -3.351562 -5.867188 -3.425781 -5.859375 -3.53125 L -4.828125 -3.53125 C -4.835938 -3.476562 -4.84375 -3.425781 -4.84375 -3.375 C -4.851562 -3.320312 -4.859375 -3.269531 -4.859375 -3.21875 C -4.859375 -2.726562 -4.703125 -2.351562 -4.390625 -2.09375 C -4.078125 -1.832031 -3.71875 -1.703125 -3.3125 -1.703125 L 0 -1.703125 L 0 -0.734375 Z M -5.75 -0.734375 "/>
</g>
<g id="glyph-2-15">
<path d="M -5.75 -1.1875 L -1.0625 -2.71875 L -5.75 -4.328125 L -5.75 -5.375 L 0 -3.21875 L 0 -2.1875 L -5.75 -0.0625 Z M -5.75 -1.1875 "/>
</g>
<g id="glyph-2-16">
<path d="M -5.71875 -0.703125 L -5.71875 -1.6875 L 0 -1.6875 L 0 -0.703125 Z M -7.890625 -0.703125 L -7.890625 -1.6875 L -6.796875 -1.6875 L -6.796875 -0.703125 Z M -7.890625 -0.703125 "/>
</g>
<g id="glyph-2-17">
<path d="M -5.921875 -2.921875 C -5.921875 -3.578125 -5.757812 -4.109375 -5.4375 -4.515625 C -5.125 -4.921875 -4.582031 -5.164062 -3.8125 -5.25 L -3.8125 -4.296875 C -4.164062 -4.242188 -4.457031 -4.113281 -4.6875 -3.90625 C -4.925781 -3.707031 -5.046875 -3.378906 -5.046875 -2.921875 C -5.046875 -2.304688 -4.75 -1.867188 -4.15625 -1.609375 C -3.757812 -1.429688 -3.273438 -1.34375 -2.703125 -1.34375 C -2.128906 -1.34375 -1.644531 -1.460938 -1.25 -1.703125 C -0.851562 -1.953125 -0.65625 -2.335938 -0.65625 -2.859375 C -0.65625 -3.265625 -0.773438 -3.582031 -1.015625 -3.8125 C -1.265625 -4.050781 -1.601562 -4.210938 -2.03125 -4.296875 L -2.03125 -5.25 C -1.269531 -5.132812 -0.710938 -4.863281 -0.359375 -4.4375 C -0.00390625 -4.007812 0.171875 -3.457031 0.171875 -2.78125 C 0.171875 -2.03125 -0.101562 -1.429688 -0.65625 -0.984375 C -1.207031 -0.535156 -1.894531 -0.3125 -2.71875 -0.3125 C -3.726562 -0.3125 -4.515625 -0.554688 -5.078125 -1.046875 C -5.640625 -1.535156 -5.921875 -2.160156 -5.921875 -2.921875 Z M -5.890625 -2.78125 Z M -5.890625 -2.78125 "/>
</g>
<g id="glyph-2-18">
<path d="M -4.28125 -4.5 C -4.28125 -5.007812 -4.378906 -5.410156 -4.578125 -5.703125 C -4.773438 -5.992188 -5.132812 -6.140625 -5.65625 -6.140625 C -6.21875 -6.140625 -6.601562 -5.929688 -6.8125 -5.515625 C -6.914062 -5.296875 -6.96875 -5.003906 -6.96875 -4.640625 L -6.96875 -2.03125 L -4.28125 -2.03125 Z M -7.890625 -0.96875 L -7.890625 -4.625 C -7.890625 -5.21875 -7.800781 -5.710938 -7.625 -6.109375 C -7.289062 -6.847656 -6.671875 -7.21875 -5.765625 -7.21875 C -5.285156 -7.21875 -4.894531 -7.117188 -4.59375 -6.921875 C -4.300781 -6.734375 -4.0625 -6.460938 -3.875 -6.109375 C -3.75 -6.410156 -3.582031 -6.640625 -3.375 -6.796875 C -3.175781 -6.953125 -2.847656 -7.039062 -2.390625 -7.0625 L -1.328125 -7.09375 C -1.023438 -7.101562 -0.800781 -7.128906 -0.65625 -7.171875 C -0.40625 -7.234375 -0.242188 -7.347656 -0.171875 -7.515625 L 0 -7.515625 L 0 -6.203125 C -0.0703125 -6.171875 -0.160156 -6.144531 -0.265625 -6.125 C -0.367188 -6.101562 -0.578125 -6.082031 -0.890625 -6.0625 L -2.203125 -6 C -2.710938 -5.976562 -3.054688 -5.789062 -3.234375 -5.4375 C -3.335938 -5.226562 -3.390625 -4.90625 -3.390625 -4.46875 L -3.390625 -2.03125 L 0 -2.03125 L 0 -0.96875 Z M -7.890625 -0.96875 "/>
</g>
<g id="glyph-2-19">
<path d="M -2.796875 -1.328125 C -2.296875 -1.328125 -1.878906 -1.398438 -1.546875 -1.546875 C -0.953125 -1.785156 -0.65625 -2.226562 -0.65625 -2.875 C -0.65625 -3.539062 -0.96875 -4.003906 -1.59375 -4.265625 C -1.9375 -4.398438 -2.378906 -4.46875 -2.921875 -4.46875 C -3.421875 -4.46875 -3.835938 -4.390625 -4.171875 -4.234375 C -4.742188 -3.972656 -5.03125 -3.515625 -5.03125 -2.859375 C -5.03125 -2.441406 -4.847656 -2.082031 -4.484375 -1.78125 C -4.117188 -1.476562 -3.554688 -1.328125 -2.796875 -1.328125 Z M -5.875 -2.765625 C -5.875 -3.234375 -5.753906 -3.632812 -5.515625 -3.96875 C -5.390625 -4.144531 -5.203125 -4.316406 -4.953125 -4.484375 L -5.75 -4.484375 L -5.75 -5.390625 L 2.296875 -5.390625 L 2.296875 -4.421875 L -0.65625 -4.421875 C -0.40625 -4.265625 -0.203125 -4.039062 -0.046875 -3.75 C 0.109375 -3.46875 0.1875 -3.113281 0.1875 -2.6875 C 0.1875 -2.070312 -0.0507812 -1.523438 -0.53125 -1.046875 C -1.007812 -0.566406 -1.742188 -0.328125 -2.734375 -0.328125 C -3.648438 -0.328125 -4.398438 -0.550781 -4.984375 -1 C -5.578125 -1.457031 -5.875 -2.046875 -5.875 -2.765625 Z M -5.875 -2.765625 "/>
</g>
<g id="glyph-2-20">
<path d="M -5.75 -1.671875 L -1.9375 -1.671875 C -1.644531 -1.671875 -1.40625 -1.71875 -1.21875 -1.8125 C -0.875 -1.988281 -0.703125 -2.3125 -0.703125 -2.78125 C -0.703125 -3.445312 -1 -3.90625 -1.59375 -4.15625 C -1.914062 -4.28125 -2.359375 -4.34375 -2.921875 -4.34375 L -5.75 -4.34375 L -5.75 -5.3125 L 0 -5.3125 L 0 -4.40625 L -0.84375 -4.421875 C -0.625 -4.296875 -0.441406 -4.140625 -0.296875 -3.953125 C 0.00390625 -3.578125 0.15625 -3.128906 0.15625 -2.609375 C 0.15625 -1.785156 -0.117188 -1.222656 -0.671875 -0.921875 C -0.960938 -0.765625 -1.351562 -0.6875 -1.84375 -0.6875 L -5.75 -0.6875 Z M -5.890625 -3 Z M -5.890625 -3 "/>
</g>
<g id="glyph-2-21">
<path d="M -1.8125 -1.28125 C -1.488281 -1.3125 -1.238281 -1.394531 -1.0625 -1.53125 C -0.75 -1.769531 -0.59375 -2.191406 -0.59375 -2.796875 C -0.59375 -3.148438 -0.671875 -3.460938 -0.828125 -3.734375 C -0.984375 -4.003906 -1.222656 -4.140625 -1.546875 -4.140625 C -1.796875 -4.140625 -1.984375 -4.03125 -2.109375 -3.8125 C -2.191406 -3.675781 -2.285156 -3.398438 -2.390625 -2.984375 L -2.578125 -2.21875 C -2.703125 -1.726562 -2.835938 -1.367188 -2.984375 -1.140625 C -3.253906 -0.722656 -3.617188 -0.515625 -4.078125 -0.515625 C -4.617188 -0.515625 -5.054688 -0.707031 -5.390625 -1.09375 C -5.734375 -1.488281 -5.90625 -2.019531 -5.90625 -2.6875 C -5.90625 -3.550781 -5.648438 -4.175781 -5.140625 -4.5625 C -4.816406 -4.800781 -4.46875 -4.914062 -4.09375 -4.90625 L -4.09375 -4 C -4.3125 -3.976562 -4.507812 -3.898438 -4.6875 -3.765625 C -4.945312 -3.546875 -5.078125 -3.160156 -5.078125 -2.609375 C -5.078125 -2.242188 -5.003906 -1.96875 -4.859375 -1.78125 C -4.722656 -1.59375 -4.539062 -1.5 -4.3125 -1.5 C -4.0625 -1.5 -3.863281 -1.625 -3.71875 -1.875 C -3.625 -2.007812 -3.539062 -2.21875 -3.46875 -2.5 L -3.3125 -3.140625 C -3.144531 -3.835938 -2.984375 -4.300781 -2.828125 -4.53125 C -2.578125 -4.914062 -2.191406 -5.109375 -1.671875 -5.109375 C -1.148438 -5.109375 -0.703125 -4.910156 -0.328125 -4.515625 C 0.0351562 -4.128906 0.21875 -3.539062 0.21875 -2.75 C 0.21875 -1.894531 0.0234375 -1.285156 -0.359375 -0.921875 C -0.753906 -0.566406 -1.238281 -0.378906 -1.8125 -0.359375 Z M -5.890625 -2.71875 Z M -5.890625 -2.71875 "/>
</g>
<g id="glyph-2-22">
<path d="M -7.359375 -0.90625 L -7.359375 -1.875 L -5.75 -1.875 L -5.75 -2.796875 L -4.96875 -2.796875 L -4.96875 -1.875 L -1.203125 -1.875 C -1.003906 -1.875 -0.875 -1.941406 -0.8125 -2.078125 C -0.769531 -2.160156 -0.75 -2.285156 -0.75 -2.453125 C -0.75 -2.503906 -0.75 -2.554688 -0.75 -2.609375 C -0.75 -2.660156 -0.753906 -2.722656 -0.765625 -2.796875 L 0 -2.796875 C 0.03125 -2.679688 0.0507812 -2.5625 0.0625 -2.4375 C 0.0820312 -2.320312 0.09375 -2.195312 0.09375 -2.0625 C 0.09375 -1.613281 -0.0195312 -1.304688 -0.25 -1.140625 C -0.488281 -0.984375 -0.789062 -0.90625 -1.15625 -0.90625 L -4.96875 -0.90625 L -4.96875 -0.125 L -5.75 -0.125 L -5.75 -0.90625 Z M -7.359375 -0.90625 "/>
</g>
</g>
<clipPath id="clip-0">
<path clip-rule="nonzero" d="M 34.152344 5.480469 L 498.523438 5.480469 L 498.523438 326.851562 L 34.152344 326.851562 Z M 34.152344 5.480469 "/>
</clipPath>
<clipPath id="clip-1">
<path clip-rule="nonzero" d="M 34.152344 265 L 498.523438 265 L 498.523438 267 L 34.152344 267 Z M 34.152344 265 "/>
</clipPath>
<clipPath id="clip-2">
<path clip-rule="nonzero" d="M 34.152344 172 L 498.523438 172 L 498.523438 174 L 34.152344 174 Z M 34.152344 172 "/>
</clipPath>
<clipPath id="clip-3">
<path clip-rule="nonzero" d="M 34.152344 80 L 498.523438 80 L 498.523438 81 L 34.152344 81 Z M 34.152344 80 "/>
</clipPath>
<clipPath id="clip-4">
<path clip-rule="nonzero" d="M 120 5.480469 L 121 5.480469 L 121 326.851562 L 120 326.851562 Z M 120 5.480469 "/>
</clipPath>
<clipPath id="clip-5">
<path clip-rule="nonzero" d="M 251 5.480469 L 252 5.480469 L 252 326.851562 L 251 326.851562 Z M 251 5.480469 "/>
</clipPath>
<clipPath id="clip-6">
<path clip-rule="nonzero" d="M 381 5.480469 L 383 5.480469 L 383 326.851562 L 381 326.851562 Z M 381 5.480469 "/>
</clipPath>
<clipPath id="clip-7">
<path clip-rule="nonzero" d="M 34.152344 311 L 498.523438 311 L 498.523438 313 L 34.152344 313 Z M 34.152344 311 "/>
</clipPath>
<clipPath id="clip-8">
<path clip-rule="nonzero" d="M 34.152344 218 L 498.523438 218 L 498.523438 221 L 34.152344 221 Z M 34.152344 218 "/>
</clipPath>
<clipPath id="clip-9">
<path clip-rule="nonzero" d="M 34.152344 126 L 498.523438 126 L 498.523438 128 L 34.152344 128 Z M 34.152344 126 "/>
</clipPath>
<clipPath id="clip-10">
<path clip-rule="nonzero" d="M 34.152344 33 L 498.523438 33 L 498.523438 35 L 34.152344 35 Z M 34.152344 33 "/>
</clipPath>
<clipPath id="clip-11">
<path clip-rule="nonzero" d="M 54 5.480469 L 56 5.480469 L 56 326.851562 L 54 326.851562 Z M 54 5.480469 "/>
</clipPath>
<clipPath id="clip-12">
<path clip-rule="nonzero" d="M 185 5.480469 L 187 5.480469 L 187 326.851562 L 185 326.851562 Z M 185 5.480469 "/>
</clipPath>
<clipPath id="clip-13">
<path clip-rule="nonzero" d="M 316 5.480469 L 318 5.480469 L 318 326.851562 L 316 326.851562 Z M 316 5.480469 "/>
</clipPath>
<clipPath id="clip-14">
<path clip-rule="nonzero" d="M 446 5.480469 L 448 5.480469 L 448 326.851562 L 446 326.851562 Z M 446 5.480469 "/>
</clipPath>
<clipPath id="clip-15">
<path clip-rule="nonzero" d="M 146 5.480469 L 148 5.480469 L 148 326.851562 L 146 326.851562 Z M 146 5.480469 "/>
</clipPath>
<clipPath id="clip-16">
<path clip-rule="nonzero" d="M 34.152344 302 L 498.523438 302 L 498.523438 304 L 34.152344 304 Z M 34.152344 302 "/>
</clipPath>
</defs>
<rect x="-50.4" y="-36" width="604.8" height="432" fill="rgb(100%, 100%, 100%)" fill-opacity="1"/>
<rect x="-50.4" y="-36" width="604.8" height="432" fill="rgb(100%, 100%, 100%)" fill-opacity="1"/>
<path fill="none" stroke-width="1.066978" stroke-linecap="round" stroke-linejoin="round" stroke="rgb(100%, 100%, 100%)" stroke-opacity="1" stroke-miterlimit="10" d="M 0 360 L 504 360 L 504 0 L 0 0 Z M 0 360 "/>
<g clip-path="url(#clip-0)">
<path fill-rule="nonzero" fill="rgb(92.156863%, 92.156863%, 92.156863%)" fill-opacity="1" d="M 34.152344 326.847656 L 498.523438 326.847656 L 498.523438 5.476562 L 34.152344 5.476562 Z M 34.152344 326.847656 "/>
</g>
<g clip-path="url(#clip-1)">
<path fill="none" stroke-width="0.533489" stroke-linecap="butt" stroke-linejoin="round" stroke="rgb(100%, 100%, 100%)" stroke-opacity="1" stroke-miterlimit="10" d="M 34.152344 265.867188 L 498.519531 265.867188 "/>
</g>
<g clip-path="url(#clip-2)">
<path fill="none" stroke-width="0.533489" stroke-linecap="butt" stroke-linejoin="round" stroke="rgb(100%, 100%, 100%)" stroke-opacity="1" stroke-miterlimit="10" d="M 34.152344 173.121094 L 498.519531 173.121094 "/>
</g>
<g clip-path="url(#clip-3)">
<path fill="none" stroke-width="0.533489" stroke-linecap="butt" stroke-linejoin="round" stroke="rgb(100%, 100%, 100%)" stroke-opacity="1" stroke-miterlimit="10" d="M 34.152344 80.371094 L 498.519531 80.371094 "/>
</g>
<g clip-path="url(#clip-4)">
<path fill="none" stroke-width="0.533489" stroke-linecap="butt" stroke-linejoin="round" stroke="rgb(100%, 100%, 100%)" stroke-opacity="1" stroke-miterlimit="10" d="M 120.585938 326.847656 L 120.585938 5.480469 "/>
</g>
<g clip-path="url(#clip-5)">
<path fill="none" stroke-width="0.533489" stroke-linecap="butt" stroke-linejoin="round" stroke="rgb(100%, 100%, 100%)" stroke-opacity="1" stroke-miterlimit="10" d="M 251.292969 326.847656 L 251.292969 5.480469 "/>
</g>
<g clip-path="url(#clip-6)">
<path fill="none" stroke-width="0.533489" stroke-linecap="butt" stroke-linejoin="round" stroke="rgb(100%, 100%, 100%)" stroke-opacity="1" stroke-miterlimit="10" d="M 381.996094 326.847656 L 381.996094 5.480469 "/>
</g>
<g clip-path="url(#clip-7)">
<path fill="none" stroke-width="1.066978" stroke-linecap="butt" stroke-linejoin="round" stroke="rgb(100%, 100%, 100%)" stroke-opacity="1" stroke-miterlimit="10" d="M 34.152344 312.242188 L 498.519531 312.242188 "/>
</g>
<g clip-path="url(#clip-8)">
<path fill="none" stroke-width="1.066978" stroke-linecap="butt" stroke-linejoin="round" stroke="rgb(100%, 100%, 100%)" stroke-opacity="1" stroke-miterlimit="10" d="M 34.152344 219.496094 L 498.519531 219.496094 "/>
</g>
<g clip-path="url(#clip-9)">
<path fill="none" stroke-width="1.066978" stroke-linecap="butt" stroke-linejoin="round" stroke="rgb(100%, 100%, 100%)" stroke-opacity="1" stroke-miterlimit="10" d="M 34.152344 126.746094 L 498.519531 126.746094 "/>
</g>
<g clip-path="url(#clip-10)">
<path fill="none" stroke-width="1.066978" stroke-linecap="butt" stroke-linejoin="round" stroke="rgb(100%, 100%, 100%)" stroke-opacity="1" stroke-miterlimit="10" d="M 34.152344 34 L 498.519531 34 "/>
</g>
<g clip-path="url(#clip-11)">
<path fill="none" stroke-width="1.066978" stroke-linecap="butt" stroke-linejoin="round" stroke="rgb(100%, 100%, 100%)" stroke-opacity="1" stroke-miterlimit="10" d="M 55.230469 326.847656 L 55.230469 5.480469 "/>
</g>
<g clip-path="url(#clip-12)">
<path fill="none" stroke-width="1.066978" stroke-linecap="butt" stroke-linejoin="round" stroke="rgb(100%, 100%, 100%)" stroke-opacity="1" stroke-miterlimit="10" d="M 185.9375 326.847656 L 185.9375 5.480469 "/>
</g>
<g clip-path="url(#clip-13)">
<path fill="none" stroke-width="1.066978" stroke-linecap="butt" stroke-linejoin="round" stroke="rgb(100%, 100%, 100%)" stroke-opacity="1" stroke-miterlimit="10" d="M 316.644531 326.847656 L 316.644531 5.480469 "/>
</g>
<g clip-path="url(#clip-14)">
<path fill="none" stroke-width="1.066978" stroke-linecap="butt" stroke-linejoin="round" stroke="rgb(100%, 100%, 100%)" stroke-opacity="1" stroke-miterlimit="10" d="M 447.351562 326.847656 L 447.351562 5.480469 "/>
</g>
<path fill-rule="nonzero" fill="rgb(0%, 0%, 0%)" fill-opacity="1" stroke-width="0.708661" stroke-linecap="round" stroke-linejoin="round" stroke="rgb(0%, 0%, 0%)" stroke-opacity="1" stroke-miterlimit="10" d="M 119.246094 302.96875 C 119.246094 305.574219 115.335938 305.574219 115.335938 302.96875 C 115.335938 300.359375 119.246094 300.359375 119.246094 302.96875 "/>
<path fill-rule="nonzero" fill="rgb(0%, 0%, 0%)" fill-opacity="1" stroke-width="0.708661" stroke-linecap="round" stroke-linejoin="round" stroke="rgb(0%, 0%, 0%)" stroke-opacity="1" stroke-miterlimit="10" d="M 57.238281 312.242188 C 57.238281 314.847656 53.328125 314.847656 53.328125 312.242188 C 53.328125 309.636719 57.238281 309.636719 57.238281 312.242188 "/>
<path fill-rule="nonzero" fill="rgb(0%, 0%, 0%)" fill-opacity="1" stroke-width="0.708661" stroke-linecap="round" stroke-linejoin="round" stroke="rgb(0%, 0%, 0%)" stroke-opacity="1" stroke-miterlimit="10" d="M 113.234375 302.96875 C 113.234375 305.574219 109.324219 305.574219 109.324219 302.96875 C 109.324219 300.359375 113.234375 300.359375 113.234375 302.96875 "/>
<path fill-rule="nonzero" fill="rgb(0%, 0%, 0%)" fill-opacity="1" stroke-width="0.708661" stroke-linecap="round" stroke-linejoin="round" stroke="rgb(0%, 0%, 0%)" stroke-opacity="1" stroke-miterlimit="10" d="M 216.9375 302.96875 C 216.9375 305.574219 213.027344 305.574219 213.027344 302.96875 C 213.027344 300.359375 216.9375 300.359375 216.9375 302.96875 "/>
<path fill-rule="nonzero" fill="rgb(0%, 0%, 0%)" fill-opacity="1" stroke-width="0.708661" stroke-linecap="round" stroke-linejoin="round" stroke="rgb(0%, 0%, 0%)" stroke-opacity="1" stroke-miterlimit="10" d="M 184.9375 298.328125 C 184.9375 300.9375 181.03125 300.9375 181.03125 298.328125 C 181.03125 295.722656 184.9375 295.722656 184.9375 298.328125 "/>
<path fill-rule="nonzero" fill="rgb(0%, 0%, 0%)" fill-opacity="1" stroke-width="0.708661" stroke-linecap="round" stroke-linejoin="round" stroke="rgb(0%, 0%, 0%)" stroke-opacity="1" stroke-miterlimit="10" d="M 369.105469 279.78125 C 369.105469 282.386719 365.195312 282.386719 365.195312 279.78125 C 365.195312 277.171875 369.105469 277.171875 369.105469 279.78125 "/>
<path fill-rule="nonzero" fill="rgb(0%, 0%, 0%)" fill-opacity="1" stroke-width="0.708661" stroke-linecap="round" stroke-linejoin="round" stroke="rgb(0%, 0%, 0%)" stroke-opacity="1" stroke-miterlimit="10" d="M 479.367188 224.132812 C 479.367188 226.738281 475.457031 226.738281 475.457031 224.132812 C 475.457031 221.523438 479.367188 221.523438 479.367188 224.132812 "/>
<path fill-rule="nonzero" fill="rgb(0%, 0%, 0%)" fill-opacity="1" stroke-width="0.708661" stroke-linecap="round" stroke-linejoin="round" stroke="rgb(0%, 0%, 0%)" stroke-opacity="1" stroke-miterlimit="10" d="M 294.132812 270.503906 C 294.132812 273.113281 290.222656 273.113281 290.222656 270.503906 C 290.222656 267.898438 294.132812 267.898438 294.132812 270.503906 "/>
<path fill-rule="nonzero" fill="rgb(0%, 0%, 0%)" fill-opacity="1" stroke-width="0.708661" stroke-linecap="round" stroke-linejoin="round" stroke="rgb(0%, 0%, 0%)" stroke-opacity="1" stroke-miterlimit="10" d="M 57.371094 312.242188 C 57.371094 314.847656 53.460938 314.847656 53.460938 312.242188 C 53.460938 309.636719 57.371094 309.636719 57.371094 312.242188 "/>
<path fill-rule="nonzero" fill="rgb(0%, 0%, 0%)" fill-opacity="1" stroke-width="0.708661" stroke-linecap="round" stroke-linejoin="round" stroke="rgb(0%, 0%, 0%)" stroke-opacity="1" stroke-miterlimit="10" d="M 298.992188 279.78125 C 298.992188 282.386719 295.082031 282.386719 295.082031 279.78125 C 295.082031 277.171875 298.992188 277.171875 298.992188 279.78125 "/>
<path fill-rule="nonzero" fill="rgb(0%, 0%, 0%)" fill-opacity="1" stroke-width="0.708661" stroke-linecap="round" stroke-linejoin="round" stroke="rgb(0%, 0%, 0%)" stroke-opacity="1" stroke-miterlimit="10" d="M 80.242188 307.605469 C 80.242188 310.210938 76.335938 310.210938 76.335938 307.605469 C 76.335938 304.996094 80.242188 304.996094 80.242188 307.605469 "/>
<path fill-rule="nonzero" fill="rgb(0%, 0%, 0%)" fill-opacity="1" stroke-width="0.708661" stroke-linecap="round" stroke-linejoin="round" stroke="rgb(0%, 0%, 0%)" stroke-opacity="1" stroke-miterlimit="10" d="M 188.835938 173.121094 C 188.835938 175.726562 184.925781 175.726562 184.925781 173.121094 C 184.925781 170.515625 188.835938 170.515625 188.835938 173.121094 "/>
<path fill-rule="nonzero" fill="rgb(0%, 0%, 0%)" fill-opacity="1" stroke-width="0.708661" stroke-linecap="round" stroke-linejoin="round" stroke="rgb(0%, 0%, 0%)" stroke-opacity="1" stroke-miterlimit="10" d="M 283.203125 191.671875 C 283.203125 194.277344 279.292969 194.277344 279.292969 191.671875 C 279.292969 189.0625 283.203125 189.0625 283.203125 191.671875 "/>
<path fill-rule="nonzero" fill="rgb(0%, 0%, 0%)" fill-opacity="1" stroke-width="0.708661" stroke-linecap="round" stroke-linejoin="round" stroke="rgb(0%, 0%, 0%)" stroke-opacity="1" stroke-miterlimit="10" d="M 78.308594 312.242188 C 78.308594 314.847656 74.398438 314.847656 74.398438 312.242188 C 74.398438 309.636719 78.308594 309.636719 78.308594 312.242188 "/>
<path fill-rule="nonzero" fill="rgb(0%, 0%, 0%)" fill-opacity="1" stroke-width="0.708661" stroke-linecap="round" stroke-linejoin="round" stroke="rgb(0%, 0%, 0%)" stroke-opacity="1" stroke-miterlimit="10" d="M 93.914062 302.96875 C 93.914062 305.574219 90.007812 305.574219 90.007812 302.96875 C 90.007812 300.359375 93.914062 300.359375 93.914062 302.96875 "/>
<path fill-rule="nonzero" fill="rgb(0%, 0%, 0%)" fill-opacity="1" stroke-width="0.708661" stroke-linecap="round" stroke-linejoin="round" stroke="rgb(0%, 0%, 0%)" stroke-opacity="1" stroke-miterlimit="10" d="M 165.726562 293.691406 C 165.726562 296.296875 161.816406 296.296875 161.816406 293.691406 C 161.816406 291.085938 165.726562 291.085938 165.726562 293.691406 "/>
<path fill-rule="nonzero" fill="rgb(0%, 0%, 0%)" fill-opacity="1" stroke-width="0.708661" stroke-linecap="round" stroke-linejoin="round" stroke="rgb(0%, 0%, 0%)" stroke-opacity="1" stroke-miterlimit="10" d="M 262.710938 307.605469 C 262.710938 310.210938 258.800781 310.210938 258.800781 307.605469 C 258.800781 304.996094 262.710938 304.996094 262.710938 307.605469 "/>
<path fill-rule="nonzero" fill="rgb(0%, 0%, 0%)" fill-opacity="1" stroke-width="0.708661" stroke-linecap="round" stroke-linejoin="round" stroke="rgb(0%, 0%, 0%)" stroke-opacity="1" stroke-miterlimit="10" d="M 204.832031 302.96875 C 204.832031 305.574219 200.921875 305.574219 200.921875 302.96875 C 200.921875 300.359375 204.832031 300.359375 204.832031 302.96875 "/>
<path fill-rule="nonzero" fill="rgb(0%, 0%, 0%)" fill-opacity="1" stroke-width="0.708661" stroke-linecap="round" stroke-linejoin="round" stroke="rgb(0%, 0%, 0%)" stroke-opacity="1" stroke-miterlimit="10" d="M 96.972656 214.855469 C 96.972656 217.464844 93.0625 217.464844 93.0625 214.855469 C 93.0625 212.25 96.972656 212.25 96.972656 214.855469 "/>
<path fill-rule="nonzero" fill="rgb(0%, 0%, 0%)" fill-opacity="1" stroke-width="0.708661" stroke-linecap="round" stroke-linejoin="round" stroke="rgb(0%, 0%, 0%)" stroke-opacity="1" stroke-miterlimit="10" d="M 101.601562 312.242188 C 101.601562 314.847656 97.691406 314.847656 97.691406 312.242188 C 97.691406 309.636719 101.601562 309.636719 101.601562 312.242188 "/>
<path fill-rule="nonzero" fill="rgb(0%, 0%, 0%)" fill-opacity="1" stroke-width="0.708661" stroke-linecap="round" stroke-linejoin="round" stroke="rgb(0%, 0%, 0%)" stroke-opacity="1" stroke-miterlimit="10" d="M 350.726562 284.417969 C 350.726562 287.023438 346.816406 287.023438 346.816406 284.417969 C 346.816406 281.8125 350.726562 281.8125 350.726562 284.417969 "/>
<path fill-rule="nonzero" fill="rgb(0%, 0%, 0%)" fill-opacity="1" stroke-width="0.708661" stroke-linecap="round" stroke-linejoin="round" stroke="rgb(0%, 0%, 0%)" stroke-opacity="1" stroke-miterlimit="10" d="M 57.5 312.242188 C 57.5 314.847656 53.589844 314.847656 53.589844 312.242188 C 53.589844 309.636719 57.5 309.636719 57.5 312.242188 "/>
<path fill-rule="nonzero" fill="rgb(0%, 0%, 0%)" fill-opacity="1" stroke-width="0.708661" stroke-linecap="round" stroke-linejoin="round" stroke="rgb(0%, 0%, 0%)" stroke-opacity="1" stroke-miterlimit="10" d="M 226.425781 289.054688 C 226.425781 291.660156 222.515625 291.660156 222.515625 289.054688 C 222.515625 286.449219 226.425781 286.449219 226.425781 289.054688 "/>
<path fill-rule="nonzero" fill="rgb(0%, 0%, 0%)" fill-opacity="1" stroke-width="0.708661" stroke-linecap="round" stroke-linejoin="round" stroke="rgb(0%, 0%, 0%)" stroke-opacity="1" stroke-miterlimit="10" d="M 197.277344 302.96875 C 197.277344 305.574219 193.367188 305.574219 193.367188 302.96875 C 193.367188 300.359375 197.277344 300.359375 197.277344 302.96875 "/>
<path fill-rule="nonzero" fill="rgb(0%, 0%, 0%)" fill-opacity="1" stroke-width="0.708661" stroke-linecap="round" stroke-linejoin="round" stroke="rgb(0%, 0%, 0%)" stroke-opacity="1" stroke-miterlimit="10" d="M 57.214844 312.242188 C 57.214844 314.847656 53.304688 314.847656 53.304688 312.242188 C 53.304688 309.636719 57.214844 309.636719 57.214844 312.242188 "/>
<path fill-rule="nonzero" fill="rgb(0%, 0%, 0%)" fill-opacity="1" stroke-width="0.708661" stroke-linecap="round" stroke-linejoin="round" stroke="rgb(0%, 0%, 0%)" stroke-opacity="1" stroke-miterlimit="10" d="M 57.238281 312.242188 C 57.238281 314.847656 53.328125 314.847656 53.328125 312.242188 C 53.328125 309.636719 57.238281 309.636719 57.238281 312.242188 "/>
<path fill-rule="nonzero" fill="rgb(0%, 0%, 0%)" fill-opacity="1" stroke-width="0.708661" stroke-linecap="round" stroke-linejoin="round" stroke="rgb(0%, 0%, 0%)" stroke-opacity="1" stroke-miterlimit="10" d="M 57.238281 312.242188 C 57.238281 314.847656 53.328125 314.847656 53.328125 312.242188 C 53.328125 309.636719 57.238281 309.636719 57.238281 312.242188 "/>
<path fill-rule="nonzero" fill="rgb(0%, 0%, 0%)" fill-opacity="1" stroke-width="0.708661" stroke-linecap="round" stroke-linejoin="round" stroke="rgb(0%, 0%, 0%)" stroke-opacity="1" stroke-miterlimit="10" d="M 272.433594 307.605469 C 272.433594 310.210938 268.523438 310.210938 268.523438 307.605469 C 268.523438 304.996094 272.433594 304.996094 272.433594 307.605469 "/>
<path fill-rule="nonzero" fill="rgb(0%, 0%, 0%)" fill-opacity="1" stroke-width="0.708661" stroke-linecap="round" stroke-linejoin="round" stroke="rgb(0%, 0%, 0%)" stroke-opacity="1" stroke-miterlimit="10" d="M 274.996094 302.96875 C 274.996094 305.574219 271.085938 305.574219 271.085938 302.96875 C 271.085938 300.359375 274.996094 300.359375 274.996094 302.96875 "/>
<path fill-rule="nonzero" fill="rgb(0%, 0%, 0%)" fill-opacity="1" stroke-width="0.708661" stroke-linecap="round" stroke-linejoin="round" stroke="rgb(0%, 0%, 0%)" stroke-opacity="1" stroke-miterlimit="10" d="M 239.703125 247.320312 C 239.703125 249.925781 235.796875 249.925781 235.796875 247.320312 C 235.796875 244.710938 239.703125 244.710938 239.703125 247.320312 "/>
<path fill-rule="nonzero" fill="rgb(0%, 0%, 0%)" fill-opacity="1" stroke-width="0.708661" stroke-linecap="round" stroke-linejoin="round" stroke="rgb(0%, 0%, 0%)" stroke-opacity="1" stroke-miterlimit="10" d="M 109.652344 312.242188 C 109.652344 314.847656 105.742188 314.847656 105.742188 312.242188 C 105.742188 309.636719 109.652344 309.636719 109.652344 312.242188 "/>
<path fill-rule="nonzero" fill="rgb(0%, 0%, 0%)" fill-opacity="1" stroke-width="0.708661" stroke-linecap="round" stroke-linejoin="round" stroke="rgb(0%, 0%, 0%)" stroke-opacity="1" stroke-miterlimit="10" d="M 77.96875 307.605469 C 77.96875 310.210938 74.058594 310.210938 74.058594 307.605469 C 74.058594 304.996094 77.96875 304.996094 77.96875 307.605469 "/>
<path fill-rule="nonzero" fill="rgb(0%, 0%, 0%)" fill-opacity="1" stroke-width="0.708661" stroke-linecap="round" stroke-linejoin="round" stroke="rgb(0%, 0%, 0%)" stroke-opacity="1" stroke-miterlimit="10" d="M 105.523438 242.679688 C 105.523438 245.289062 101.613281 245.289062 101.613281 242.679688 C 101.613281 240.074219 105.523438 240.074219 105.523438 242.679688 "/>
<path fill-rule="nonzero" fill="rgb(0%, 0%, 0%)" fill-opacity="1" stroke-width="0.708661" stroke-linecap="round" stroke-linejoin="round" stroke="rgb(0%, 0%, 0%)" stroke-opacity="1" stroke-miterlimit="10" d="M 136.105469 270.503906 C 136.105469 273.113281 132.199219 273.113281 132.199219 270.503906 C 132.199219 267.898438 136.105469 267.898438 136.105469 270.503906 "/>
<path fill-rule="nonzero" fill="rgb(0%, 0%, 0%)" fill-opacity="1" stroke-width="0.708661" stroke-linecap="round" stroke-linejoin="round" stroke="rgb(0%, 0%, 0%)" stroke-opacity="1" stroke-miterlimit="10" d="M 140.34375 20.085938 C 140.34375 22.695312 136.433594 22.695312 136.433594 20.085938 C 136.433594 17.480469 140.34375 17.480469 140.34375 20.085938 "/>
<path fill-rule="nonzero" fill="rgb(0%, 0%, 0%)" fill-opacity="1" stroke-width="0.708661" stroke-linecap="round" stroke-linejoin="round" stroke="rgb(0%, 0%, 0%)" stroke-opacity="1" stroke-miterlimit="10" d="M 99.691406 312.242188 C 99.691406 314.847656 95.78125 314.847656 95.78125 312.242188 C 95.78125 309.636719 99.691406 309.636719 99.691406 312.242188 "/>
<path fill-rule="nonzero" fill="rgb(0%, 0%, 0%)" fill-opacity="1" stroke-width="0.708661" stroke-linecap="round" stroke-linejoin="round" stroke="rgb(0%, 0%, 0%)" stroke-opacity="1" stroke-miterlimit="10" d="M 158.824219 66.460938 C 158.824219 69.066406 154.914062 69.066406 154.914062 66.460938 C 154.914062 63.855469 158.824219 63.855469 158.824219 66.460938 "/>
<path fill-rule="nonzero" fill="rgb(0%, 0%, 0%)" fill-opacity="1" stroke-width="0.708661" stroke-linecap="round" stroke-linejoin="round" stroke="rgb(0%, 0%, 0%)" stroke-opacity="1" stroke-miterlimit="10" d="M 378.699219 238.042969 C 378.699219 240.648438 374.789062 240.648438 374.789062 238.042969 C 374.789062 235.4375 378.699219 235.4375 378.699219 238.042969 "/>
<path fill-rule="nonzero" fill="rgb(0%, 0%, 0%)" fill-opacity="1" stroke-width="0.708661" stroke-linecap="round" stroke-linejoin="round" stroke="rgb(0%, 0%, 0%)" stroke-opacity="1" stroke-miterlimit="10" d="M 177.671875 312.242188 C 177.671875 314.847656 173.761719 314.847656 173.761719 312.242188 C 173.761719 309.636719 177.671875 309.636719 177.671875 312.242188 "/>
<path fill-rule="nonzero" fill="rgb(0%, 0%, 0%)" fill-opacity="1" stroke-width="0.708661" stroke-linecap="round" stroke-linejoin="round" stroke="rgb(0%, 0%, 0%)" stroke-opacity="1" stroke-miterlimit="10" d="M 228.253906 284.417969 C 228.253906 287.023438 224.34375 287.023438 224.34375 284.417969 C 224.34375 281.8125 228.253906 281.8125 228.253906 284.417969 "/>
<path fill-rule="nonzero" fill="rgb(0%, 0%, 0%)" fill-opacity="1" stroke-width="0.708661" stroke-linecap="round" stroke-linejoin="round" stroke="rgb(0%, 0%, 0%)" stroke-opacity="1" stroke-miterlimit="10" d="M 57.214844 312.242188 C 57.214844 314.847656 53.304688 314.847656 53.304688 312.242188 C 53.304688 309.636719 57.214844 309.636719 57.214844 312.242188 "/>
<path fill-rule="nonzero" fill="rgb(0%, 0%, 0%)" fill-opacity="1" stroke-width="0.708661" stroke-linecap="round" stroke-linejoin="round" stroke="rgb(0%, 0%, 0%)" stroke-opacity="1" stroke-miterlimit="10" d="M 57.839844 312.242188 C 57.839844 314.847656 53.929688 314.847656 53.929688 312.242188 C 53.929688 309.636719 57.839844 309.636719 57.839844 312.242188 "/>
<path fill-rule="nonzero" fill="rgb(0%, 0%, 0%)" fill-opacity="1" stroke-width="0.708661" stroke-linecap="round" stroke-linejoin="round" stroke="rgb(0%, 0%, 0%)" stroke-opacity="1" stroke-miterlimit="10" d="M 169.960938 307.605469 C 169.960938 310.210938 166.050781 310.210938 166.050781 307.605469 C 166.050781 304.996094 169.960938 304.996094 169.960938 307.605469 "/>
<path fill-rule="nonzero" fill="rgb(0%, 0%, 0%)" fill-opacity="1" stroke-width="0.708661" stroke-linecap="round" stroke-linejoin="round" stroke="rgb(0%, 0%, 0%)" stroke-opacity="1" stroke-miterlimit="10" d="M 162.171875 224.132812 C 162.171875 226.738281 158.261719 226.738281 158.261719 224.132812 C 158.261719 221.523438 162.171875 221.523438 162.171875 224.132812 "/>
<path fill-rule="nonzero" fill="rgb(0%, 0%, 0%)" fill-opacity="1" stroke-width="0.708661" stroke-linecap="round" stroke-linejoin="round" stroke="rgb(0%, 0%, 0%)" stroke-opacity="1" stroke-miterlimit="10" d="M 149.230469 247.320312 C 149.230469 249.925781 145.320312 249.925781 145.320312 247.320312 C 145.320312 244.710938 149.230469 244.710938 149.230469 247.320312 "/>
<path fill-rule="nonzero" fill="rgb(0%, 0%, 0%)" fill-opacity="1" stroke-width="0.708661" stroke-linecap="round" stroke-linejoin="round" stroke="rgb(0%, 0%, 0%)" stroke-opacity="1" stroke-miterlimit="10" d="M 89.394531 312.242188 C 89.394531 314.847656 85.484375 314.847656 85.484375 312.242188 C 85.484375 309.636719 89.394531 309.636719 89.394531 312.242188 "/>
<path fill-rule="nonzero" fill="rgb(0%, 0%, 0%)" fill-opacity="1" stroke-width="0.708661" stroke-linecap="round" stroke-linejoin="round" stroke="rgb(0%, 0%, 0%)" stroke-opacity="1" stroke-miterlimit="10" d="M 146.328125 196.308594 C 146.328125 198.914062 142.417969 198.914062 142.417969 196.308594 C 142.417969 193.699219 146.328125 193.699219 146.328125 196.308594 "/>
<path fill-rule="nonzero" fill="rgb(0%, 0%, 0%)" fill-opacity="1" stroke-width="0.708661" stroke-linecap="round" stroke-linejoin="round" stroke="rgb(0%, 0%, 0%)" stroke-opacity="1" stroke-miterlimit="10" d="M 166.089844 200.945312 C 166.089844 203.550781 162.183594 203.550781 162.183594 200.945312 C 162.183594 198.339844 166.089844 198.339844 166.089844 200.945312 "/>
<path fill-rule="nonzero" fill="rgb(0%, 0%, 0%)" fill-opacity="1" stroke-width="0.708661" stroke-linecap="round" stroke-linejoin="round" stroke="rgb(0%, 0%, 0%)" stroke-opacity="1" stroke-miterlimit="10" d="M 57.265625 312.242188 C 57.265625 314.847656 53.355469 314.847656 53.355469 312.242188 C 53.355469 309.636719 57.265625 309.636719 57.265625 312.242188 "/>
<path fill-rule="nonzero" fill="rgb(0%, 0%, 0%)" fill-opacity="1" stroke-width="0.708661" stroke-linecap="round" stroke-linejoin="round" stroke="rgb(0%, 0%, 0%)" stroke-opacity="1" stroke-miterlimit="10" d="M 57.214844 312.242188 C 57.214844 314.847656 53.304688 314.847656 53.304688 312.242188 C 53.304688 309.636719 57.214844 309.636719 57.214844 312.242188 "/>
<path fill-rule="nonzero" fill="rgb(0%, 0%, 0%)" fill-opacity="1" stroke-width="0.708661" stroke-linecap="round" stroke-linejoin="round" stroke="rgb(0%, 0%, 0%)" stroke-opacity="1" stroke-miterlimit="10" d="M 260.121094 307.605469 C 260.121094 310.210938 256.210938 310.210938 256.210938 307.605469 C 256.210938 304.996094 260.121094 304.996094 260.121094 307.605469 "/>
<path fill-rule="nonzero" fill="rgb(0%, 0%, 0%)" fill-opacity="1" stroke-width="0.708661" stroke-linecap="round" stroke-linejoin="round" stroke="rgb(0%, 0%, 0%)" stroke-opacity="1" stroke-miterlimit="10" d="M 59.984375 312.242188 C 59.984375 314.847656 56.074219 314.847656 56.074219 312.242188 C 56.074219 309.636719 59.984375 309.636719 59.984375 312.242188 "/>
<path fill-rule="nonzero" fill="rgb(0%, 0%, 0%)" fill-opacity="1" stroke-width="0.708661" stroke-linecap="round" stroke-linejoin="round" stroke="rgb(0%, 0%, 0%)" stroke-opacity="1" stroke-miterlimit="10" d="M 402.460938 293.691406 C 402.460938 296.296875 398.550781 296.296875 398.550781 293.691406 C 398.550781 291.085938 402.460938 291.085938 402.460938 293.691406 "/>
<path fill-rule="nonzero" fill="rgb(0%, 0%, 0%)" fill-opacity="1" stroke-width="0.708661" stroke-linecap="round" stroke-linejoin="round" stroke="rgb(0%, 0%, 0%)" stroke-opacity="1" stroke-miterlimit="10" d="M 367.5625 284.417969 C 367.5625 287.023438 363.652344 287.023438 363.652344 284.417969 C 363.652344 281.8125 367.5625 281.8125 367.5625 284.417969 "/>
<path fill-rule="nonzero" fill="rgb(0%, 0%, 0%)" fill-opacity="1" stroke-width="0.708661" stroke-linecap="round" stroke-linejoin="round" stroke="rgb(0%, 0%, 0%)" stroke-opacity="1" stroke-miterlimit="10" d="M 112.109375 270.503906 C 112.109375 273.113281 108.199219 273.113281 108.199219 270.503906 C 108.199219 267.898438 112.109375 267.898438 112.109375 270.503906 "/>
<g clip-path="url(#clip-15)">
<path fill="none" stroke-width="1.066978" stroke-linecap="butt" stroke-linejoin="round" stroke="rgb(40%, 40%, 40%)" stroke-opacity="1" stroke-dasharray="4.267913 4.267913" stroke-miterlimit="10" d="M 147.277344 326.847656 L 147.277344 5.480469 "/>
</g>
<g clip-path="url(#clip-16)">
<path fill="none" stroke-width="1.066978" stroke-linecap="butt" stroke-linejoin="round" stroke="rgb(40%, 40%, 40%)" stroke-opacity="1" stroke-dasharray="4.267913 4.267913" stroke-miterlimit="10" d="M 34.152344 302.96875 L 498.519531 302.96875 "/>
</g>
<g fill="rgb(30.196078%, 30.196078%, 30.196078%)" fill-opacity="1">
<use xlink:href="#glyph-0-1" x="24.21875" y="315.518555"/>
</g>
<g fill="rgb(30.196078%, 30.196078%, 30.196078%)" fill-opacity="1">
<use xlink:href="#glyph-0-2" x="19.21875" y="222.772461"/>
<use xlink:href="#glyph-0-1" x="24.21875" y="222.772461"/>
</g>
<g fill="rgb(30.196078%, 30.196078%, 30.196078%)" fill-opacity="1">
<use xlink:href="#glyph-0-3" x="19.21875" y="130.022461"/>
<use xlink:href="#glyph-0-1" x="24.21875" y="130.022461"/>
</g>
<g fill="rgb(30.196078%, 30.196078%, 30.196078%)" fill-opacity="1">
<use xlink:href="#glyph-0-4" x="19.21875" y="37.276367"/>
<use xlink:href="#glyph-0-1" x="24.21875" y="37.276367"/>
</g>
<path fill="none" stroke-width="1.066978" stroke-linecap="butt" stroke-linejoin="round" stroke="rgb(20%, 20%, 20%)" stroke-opacity="1" stroke-miterlimit="10" d="M 31.410156 312.242188 L 34.152344 312.242188 "/>
<path fill="none" stroke-width="1.066978" stroke-linecap="butt" stroke-linejoin="round" stroke="rgb(20%, 20%, 20%)" stroke-opacity="1" stroke-miterlimit="10" d="M 31.410156 219.496094 L 34.152344 219.496094 "/>
<path fill="none" stroke-width="1.066978" stroke-linecap="butt" stroke-linejoin="round" stroke="rgb(20%, 20%, 20%)" stroke-opacity="1" stroke-miterlimit="10" d="M 31.410156 126.746094 L 34.152344 126.746094 "/>
<path fill="none" stroke-width="1.066978" stroke-linecap="butt" stroke-linejoin="round" stroke="rgb(20%, 20%, 20%)" stroke-opacity="1" stroke-miterlimit="10" d="M 31.410156 34 L 34.152344 34 "/>
<path fill="none" stroke-width="1.066978" stroke-linecap="butt" stroke-linejoin="round" stroke="rgb(20%, 20%, 20%)" stroke-opacity="1" stroke-miterlimit="10" d="M 55.230469 329.589844 L 55.230469 326.847656 "/>
<path fill="none" stroke-width="1.066978" stroke-linecap="butt" stroke-linejoin="round" stroke="rgb(20%, 20%, 20%)" stroke-opacity="1" stroke-miterlimit="10" d="M 185.9375 329.589844 L 185.9375 326.847656 "/>
<path fill="none" stroke-width="1.066978" stroke-linecap="butt" stroke-linejoin="round" stroke="rgb(20%, 20%, 20%)" stroke-opacity="1" stroke-miterlimit="10" d="M 316.644531 329.589844 L 316.644531 326.847656 "/>
<path fill="none" stroke-width="1.066978" stroke-linecap="butt" stroke-linejoin="round" stroke="rgb(20%, 20%, 20%)" stroke-opacity="1" stroke-miterlimit="10" d="M 447.351562 329.589844 L 447.351562 326.847656 "/>
<g fill="rgb(30.196078%, 30.196078%, 30.196078%)" fill-opacity="1">
<use xlink:href="#glyph-0-1" x="52.730469" y="338.557617"/>
</g>
<g fill="rgb(30.196078%, 30.196078%, 30.196078%)" fill-opacity="1">
<use xlink:href="#glyph-0-5" x="174.9375" y="338.557617"/>
<use xlink:href="#glyph-0-6" x="179.9375" y="338.557617"/>
<use xlink:href="#glyph-0-1" x="181.9375" y="338.557617"/>
<use xlink:href="#glyph-0-1" x="186.9375" y="338.557617"/>
<use xlink:href="#glyph-0-1" x="191.9375" y="338.557617"/>
</g>
<g fill="rgb(30.196078%, 30.196078%, 30.196078%)" fill-opacity="1">
<use xlink:href="#glyph-0-7" x="303.144531" y="338.557617"/>
<use xlink:href="#glyph-0-1" x="308.144531" y="338.557617"/>
<use xlink:href="#glyph-0-6" x="313.144531" y="338.557617"/>
<use xlink:href="#glyph-0-1" x="315.144531" y="338.557617"/>
<use xlink:href="#glyph-0-1" x="320.144531" y="338.557617"/>
<use xlink:href="#glyph-0-1" x="325.144531" y="338.557617"/>
</g>
<g fill="rgb(30.196078%, 30.196078%, 30.196078%)" fill-opacity="1">
<use xlink:href="#glyph-0-7" x="433.851562" y="338.557617"/>
<use xlink:href="#glyph-0-5" x="438.851562" y="338.557617"/>
<use xlink:href="#glyph-0-6" x="443.851562" y="338.557617"/>
<use xlink:href="#glyph-0-1" x="445.851562" y="338.557617"/>
<use xlink:href="#glyph-0-1" x="450.851562" y="338.557617"/>
<use xlink:href="#glyph-0-1" x="455.851562" y="338.557617"/>
</g>
<g fill="rgb(0%, 0%, 0%)" fill-opacity="1">
<use xlink:href="#glyph-1-1" x="232.835938" y="350.990234"/>
<use xlink:href="#glyph-1-2" x="240.835938" y="350.990234"/>
<use xlink:href="#glyph-1-3" x="246.835938" y="350.990234"/>
<use xlink:href="#glyph-1-4" x="252.835938" y="350.990234"/>
<use xlink:href="#glyph-1-5" x="255.835938" y="350.990234"/>
<use xlink:href="#glyph-1-6" x="261.835938" y="350.990234"/>
<use xlink:href="#glyph-1-7" x="263.835938" y="350.990234"/>
<use xlink:href="#glyph-1-8" x="269.835938" y="350.990234"/>
<use xlink:href="#glyph-1-9" x="275.835938" y="350.990234"/>
<use xlink:href="#glyph-1-10" x="281.835938" y="350.990234"/>
<use xlink:href="#glyph-1-8" x="287.835938" y="350.990234"/>
<use xlink:href="#glyph-1-10" x="293.835938" y="350.990234"/>
</g>
<g fill="rgb(0%, 0%, 0%)" fill-opacity="1">
<use xlink:href="#glyph-2-1" x="12.951172" y="261.164062"/>
<use xlink:href="#glyph-2-2" x="12.951172" y="255.164062"/>
<use xlink:href="#glyph-2-1" x="12.951172" y="249.164062"/>
<use xlink:href="#glyph-2-3" x="12.951172" y="243.164062"/>
<use xlink:href="#glyph-2-4" x="12.951172" y="237.164062"/>
<use xlink:href="#glyph-2-5" x="12.951172" y="234.164062"/>
<use xlink:href="#glyph-2-6" x="12.951172" y="227.164062"/>
<use xlink:href="#glyph-2-7" x="12.951172" y="220.164062"/>
<use xlink:href="#glyph-2-4" x="12.951172" y="212.164062"/>
<use xlink:href="#glyph-2-7" x="12.951172" y="209.164062"/>
<use xlink:href="#glyph-2-8" x="12.951172" y="201.164062"/>
<use xlink:href="#glyph-2-9" x="12.951172" y="195.164062"/>
<use xlink:href="#glyph-2-4" x="12.951172" y="189.164062"/>
<use xlink:href="#glyph-2-10" x="12.951172" y="186.164062"/>
<use xlink:href="#glyph-2-8" x="12.951172" y="179.164062"/>
<use xlink:href="#glyph-2-8" x="12.951172" y="173.164062"/>
<use xlink:href="#glyph-2-11" x="12.951172" y="167.164062"/>
<use xlink:href="#glyph-2-4" x="12.951172" y="161.164062"/>
<use xlink:href="#glyph-2-12" x="12.951172" y="158.164062"/>
<use xlink:href="#glyph-2-13" x="12.951172" y="151.164062"/>
<use xlink:href="#glyph-2-14" x="12.951172" y="145.164062"/>
<use xlink:href="#glyph-2-15" x="12.951172" y="141.164062"/>
<use xlink:href="#glyph-2-16" x="12.951172" y="135.164062"/>
<use xlink:href="#glyph-2-17" x="12.951172" y="133.164062"/>
<use xlink:href="#glyph-2-13" x="12.951172" y="127.164062"/>
<use xlink:href="#glyph-2-4" x="12.951172" y="121.164062"/>
<use xlink:href="#glyph-2-18" x="12.951172" y="118.164062"/>
<use xlink:href="#glyph-2-13" x="12.951172" y="110.164062"/>
<use xlink:href="#glyph-2-19" x="12.951172" y="104.164062"/>
<use xlink:href="#glyph-2-20" x="12.951172" y="98.164062"/>
<use xlink:href="#glyph-2-13" x="12.951172" y="92.164062"/>
<use xlink:href="#glyph-2-21" x="12.951172" y="86.164062"/>
<use xlink:href="#glyph-2-22" x="12.951172" y="80.164062"/>
<use xlink:href="#glyph-2-21" x="12.951172" y="77.164062"/>
</g>
</svg>
